<svg width="21" height="20" viewBox="0 0 21 20" fill="none" xmlns="http://www.w3.org/2000/svg">
<path d="M19.8514 2.625H17.7186V3.93748H19.6874V18.3747H1.31265V3.93748H3.28137V2.625H1.14859C0.995183 2.62756 0.843787 2.66032 0.703045 2.72141C0.562303 2.78249 0.434974 2.8707 0.328329 2.981C0.221684 3.0913 0.137813 3.22153 0.0815068 3.36425C0.0252004 3.50697 -0.00243856 3.65939 0.000168687 3.81279V18.4994C-0.00243856 18.6528 0.0252004 18.8053 0.0815068 18.948C0.137813 19.0907 0.221684 19.2209 0.328329 19.3312C0.434974 19.4415 0.562303 19.5297 0.703045 19.5908C0.843787 19.6519 0.995183 19.6847 1.14859 19.6872H19.8514C20.0048 19.6847 20.1562 19.6519 20.297 19.5908C20.4377 19.5297 20.565 19.4415 20.6717 19.3312C20.7783 19.2209 20.8622 19.0907 20.9185 18.948C20.9748 18.8053 21.0024 18.6528 20.9998 18.4994V3.81279C21.0024 3.65939 20.9748 3.50697 20.9185 3.36425C20.8622 3.22153 20.7783 3.0913 20.6717 2.981C20.565 2.8707 20.4377 2.78249 20.297 2.72141C20.1562 2.66032 20.0048 2.62756 19.8514 2.625Z" fill="#55286F"/>
<path d="M3.93759 7.875H5.25007V9.18748H3.93759V7.875Z" fill="#55286F"/>
<path d="M7.87503 7.875H9.18751V9.18748H7.87503V7.875Z" fill="#55286F"/>
<path d="M11.8125 7.875H13.1249V9.18748H11.8125V7.875Z" fill="#55286F"/>
<path d="M15.7499 7.875H17.0624V9.18748H15.7499V7.875Z" fill="#55286F"/>
<path d="M3.93759 11.1562H5.25007V12.4687H3.93759V11.1562Z" fill="#55286F"/>
<path d="M7.87503 11.1562H9.18751V12.4687H7.87503V11.1562Z" fill="#55286F"/>
<path d="M11.8125 11.1562H13.1249V12.4687H11.8125V11.1562Z" fill="#55286F"/>
<path d="M15.7499 11.1562H17.0624V12.4687H15.7499V11.1562Z" fill="#55286F"/>
<path d="M3.93759 14.4375H5.25007V15.75H3.93759V14.4375Z" fill="#55286F"/>
<path d="M7.87503 14.4375H9.18751V15.75H7.87503V14.4375Z" fill="#55286F"/>
<path d="M11.8125 14.4375H13.1249V15.75H11.8125V14.4375Z" fill="#55286F"/>
<path d="M15.7499 14.4375H17.0624V15.75H15.7499V14.4375Z" fill="#55286F"/>
<path d="M5.25008 5.24992C5.42413 5.24992 5.59104 5.18078 5.71411 5.05771C5.83718 4.93464 5.90632 4.76772 5.90632 4.59368V0.656239C5.90632 0.482194 5.83718 0.315277 5.71411 0.192208C5.59104 0.0691393 5.42413 0 5.25008 0C5.07604 0 4.90912 0.0691393 4.78605 0.192208C4.66298 0.315277 4.59384 0.482194 4.59384 0.656239V4.59368C4.59384 4.76772 4.66298 4.93464 4.78605 5.05771C4.90912 5.18078 5.07604 5.24992 5.25008 5.24992Z" fill="#55286F"/>
<path d="M15.7499 5.24992C15.9239 5.24992 16.0909 5.18078 16.2139 5.05771C16.337 4.93464 16.4061 4.76772 16.4061 4.59368V0.656239C16.4061 0.482194 16.337 0.315277 16.2139 0.192208C16.0909 0.0691393 15.9239 0 15.7499 0C15.5759 0 15.4089 0.0691393 15.2859 0.192208C15.1628 0.315277 15.0937 0.482194 15.0937 0.656239V4.59368C15.0937 4.76772 15.1628 4.93464 15.2859 5.05771C15.4089 5.18078 15.5759 5.24992 15.7499 5.24992Z" fill="#55286F"/>
<path d="M7.21878 2.625H13.7812V3.93748H7.21878V2.625Z" fill="#55286F"/>
</svg>
