<svg width="32" height="32" viewBox="0 0 32 32" fill="none" xmlns="http://www.w3.org/2000/svg">
<g clip-path="url(#clip0)">
<path d="M14.6667 8.40003C14.4 8.40003 14.1333 8.2667 13.8667 8.13337C13.3333 7.73337 13.2 6.80003 13.6 6.2667L16.6667 1.8667C17.0667 1.20003 17.8667 1.0667 18.5333 1.4667C19.2 1.8667 19.3333 2.6667 18.9333 3.33337L15.8667 7.73337C15.6 8.13337 15.2 8.40003 14.6667 8.40003Z" fill="#226CE0"/>
<path d="M23.8667 13.6C23.6 13.6 23.3333 13.4667 23.0667 13.3333C22.4 12.9333 22.2667 12.1333 22.6667 11.4667L25.7333 7.06665C26.1333 6.39998 26.9333 6.26665 27.6 6.66665C28.2667 7.19998 28.4 7.99998 28 8.66665L24.9333 13.0667C24.6667 13.3333 24.2667 13.6 23.8667 13.6Z" fill="#226CE0"/>
<path d="M7.33333 31.3333C7.06666 31.3333 6.79999 31.2 6.53333 31.0666C5.86666 30.6666 5.73333 29.8666 6.13333 29.2L7.46666 27.2C7.99999 26.6666 8.93333 26.4 9.46666 26.9333C10.1333 27.3333 10.2667 28.1333 9.86666 28.8L8.53333 30.8C8.26666 31.0666 7.73333 31.3333 7.33333 31.3333Z" fill="#226CE0"/>
<path d="M16.1333 31.3334C15.7333 31.3334 15.3333 31.0667 15.0667 30.8L13.7333 28.8C13.3333 28.1334 13.4667 27.3334 14.1333 26.9334C14.8 26.5334 15.6 26.6667 16 27.3334L17.3333 29.3334C17.7333 30 17.6 30.8 16.9333 31.2C16.6667 31.2 16.4 31.3334 16.1333 31.3334Z" fill="#226CE0"/>
<path d="M27.0667 28.2667C26.6667 28.2667 26.2667 28 26 27.7334L22.9333 23.3334C22.5333 22.6667 22.6667 21.8667 23.3333 21.4667C24 21.0667 24.8 21.2 25.2 21.8667L28.2667 26.2667C28.6667 26.9334 28.5333 27.7334 27.8667 28.1334C27.6 28.1334 27.3333 28.2667 27.0667 28.2667Z" fill="#226CE0"/>
<path d="M8.66666 8.40001C8.26666 8.40001 7.86666 8.13334 7.59999 7.86668L4.66666 3.46668C4.26666 2.80001 4.39999 2.00001 4.93333 1.60001C5.59999 1.20001 6.39999 1.33334 6.79999 1.86668L9.86666 6.26668C10.2667 6.93334 10.1333 7.73334 9.46666 8.13334C9.19999 8.26668 8.93333 8.40001 8.66666 8.40001Z" fill="#226CE0"/>
<path d="M5.33333 13.3334H2.66666C1.86666 13.3334 1.33333 12.8001 1.33333 12.0001C1.33333 11.2001 1.86666 10.6667 2.66666 10.6667H5.33333C6.13333 10.6667 6.66666 11.2001 6.66666 12.0001C6.66666 12.8001 6.13333 13.3334 5.33333 13.3334Z" fill="#226CE0"/>
<path d="M5.33333 24H2.66666C1.86666 24 1.33333 23.4667 1.33333 22.6667C1.33333 21.8667 1.86666 21.3334 2.66666 21.3334H5.33333C6.13333 21.3334 6.66666 21.8667 6.66666 22.6667C6.66666 23.4667 6.13333 24 5.33333 24Z" fill="#226CE0"/>
<path d="M29.8667 18.8H26.6667C25.8667 18.8 25.3333 18.2666 25.3333 17.4666C25.3333 16.6666 25.8667 16.1333 26.6667 16.1333H29.8667C30.6667 16.1333 31.2 16.6666 31.2 17.4666C31.2 18.2666 30.6667 18.8 29.8667 18.8Z" fill="#226CE0"/>
<path d="M14.8 29.2001H8.66666C8.13333 29.2001 7.73333 28.9334 7.46666 28.5334L4.4 23.3334C4.13333 22.9334 4.13333 22.4001 4.4 22.0001L7.46666 16.8001C7.73333 16.4001 8.13333 16.1334 8.66666 16.1334H14.6667C15.2 16.1334 15.6 16.4001 15.8667 16.8001L18.9333 22.0001C19.2 22.4001 19.2 22.9334 18.9333 23.3334L15.8667 28.5334C15.6 28.9334 15.2 29.2001 14.8 29.2001ZM9.46666 26.5334H13.8667L16.1333 22.6668L13.8667 18.8001H9.46666L7.33333 22.6668L9.46666 26.5334Z" fill="#BC96E6"/>
<path d="M23.7333 24H17.7333C17.2 24 16.8 23.7333 16.5333 23.3333L13.4667 18.1333C13.2 17.7333 13.2 17.2 13.4667 16.8L16.5333 11.6C16.8 11.2 17.2 10.9333 17.7333 10.9333H23.7333C24.2667 10.9333 24.6667 11.2 24.9333 11.6L28 16.8C28.2667 17.2 28.2667 17.7333 28 18.1333L24.9333 23.3333C24.6667 23.7333 24.2667 24 23.7333 24ZM18.5333 21.3333H22.9333L25.2 17.4667L22.9333 13.6H18.5333L16.2667 17.4667L18.5333 21.3333Z" fill="#BC96E6"/>
<path d="M14.8 18.8001H8.66666C8.13333 18.8001 7.73333 18.5334 7.46666 18.1334L4.53333 12.9334C4.26666 12.5334 4.26666 12.0001 4.53333 11.6001L7.6 6.40007C7.86666 6.00007 8.26666 5.7334 8.8 5.7334H14.8C15.3333 5.7334 15.7333 6.00007 16 6.40007L19.0667 11.6001C19.3333 12.0001 19.3333 12.5334 19.0667 12.9334L16 18.1334C15.6 18.5334 15.2 18.8001 14.8 18.8001ZM9.46666 16.1334H13.8667L16.1333 12.2667L14 8.40007H9.46666L7.33333 12.2667L9.46666 16.1334Z" fill="#BC96E6"/>
</g>
<defs>
<clipPath id="clip0">
<rect width="29.8667" height="30" fill="white" transform="translate(1.33333 1.33337)"/>
</clipPath>
</defs>
</svg>
