<svg width="32" height="32" viewBox="0 0 32 32" fill="none" xmlns="http://www.w3.org/2000/svg">
<g clip-path="url(#clip0)">
<path d="M16.2667 24.5333C9.86675 24.5333 4.66675 19.3333 4.66675 12.9333C4.66675 6.53325 9.86675 1.33325 16.2667 1.33325C22.6667 1.33325 27.8667 6.53325 27.8667 12.9333C27.8667 19.3333 22.6667 24.5333 16.2667 24.5333ZM16.2667 3.99992C11.3334 3.99992 7.33341 7.99992 7.33341 12.9333C7.33341 17.8666 11.3334 21.8666 16.2667 21.8666C21.2001 21.8666 25.2001 17.8666 25.2001 12.9333C25.2001 7.99992 21.2001 3.99992 16.2667 3.99992Z" fill="#BC96E6"/>
<path d="M18.4 19.8667H14.1334C13.3334 19.8667 12.8 19.3333 12.8 18.5333V16.4H10.6667C9.86671 16.4 9.33337 15.8667 9.33337 15.0667V10.9333C9.33337 10.1333 9.86671 9.6 10.6667 9.6H12.8V7.33333C12.8 6.53333 13.3334 6 14.1334 6H18.2667C19.0667 6 19.6 6.53333 19.6 7.33333V9.46667H21.7334C22.5334 9.46667 23.0667 10 23.0667 10.8V14.9333C23.0667 15.7333 22.5334 16.2667 21.7334 16.2667H19.6V18.4C19.7334 19.3333 19.0667 19.8667 18.4 19.8667ZM15.4667 17.2H16.9334V15.0667C16.9334 14.2667 17.4667 13.7333 18.2667 13.7333H20.4V12.2667H18.2667C17.4667 12.2667 16.9334 11.7333 16.9334 10.9333V8.66667H15.4667V10.8C15.4667 11.6 14.9334 12.1333 14.1334 12.1333H12V13.6H14.1334C14.9334 13.6 15.4667 14.1333 15.4667 14.9333V17.2Z" fill="#226CE0"/>
<path d="M10.9333 31.3335C10.1333 31.3335 9.59998 30.8001 9.59998 30.0001V26.5335C5.19998 24.4001 1.99998 20.1335 1.33331 15.2001C1.19998 14.5335 1.73331 13.7335 2.39998 13.7335C3.19998 13.6001 3.86665 14.1335 3.99998 14.8001C4.66665 19.0668 7.46665 22.8001 11.4666 24.4001C12 24.6668 12.2666 25.0668 12.2666 25.6001V29.8668C12.2666 30.6668 11.7333 31.3335 10.9333 31.3335Z" fill="#226CE0"/>
<path d="M21.5999 31.3334C20.7999 31.3334 20.2666 30.8001 20.2666 30.0001V25.7334C20.2666 25.2001 20.5333 24.6668 21.0666 24.5334C25.0666 22.8001 27.9999 19.2001 28.5333 14.9334C28.6666 14.2668 29.3333 13.7334 29.9999 13.8668C30.6666 14.0001 31.1999 14.6668 31.0666 15.3334C30.3999 20.2668 27.1999 24.5334 22.7999 26.6668V30.1334C22.9333 30.6668 22.2666 31.3334 21.5999 31.3334Z" fill="#226CE0"/>
</g>
<defs>
<clipPath id="clip0">
<rect width="29.8667" height="30" fill="white" transform="translate(1.33337 1.33325)"/>
</clipPath>
</defs>
</svg>
