<svg width="32" height="32" viewBox="0 0 32 32" fill="none" xmlns="http://www.w3.org/2000/svg">
<g clip-path="url(#clip0)">
<path d="M16.4 30.1333C16.2667 30.1333 16.1334 30.1333 16 30.1333C15.7334 30.1333 15.6 30 15.3334 29.7333L6.80002 20.9333C6.26669 20.4 6.26669 19.6 6.80002 19.0666C7.33335 18.5333 8.13336 18.5333 8.66669 19.0666L16.2667 26.9333L26.5334 16.4C27.3334 15.6 27.8667 14.6666 28.1334 13.7333C28.9334 11.2 28.2667 8.66663 26.5334 6.79996C25.7334 5.86663 24.5334 5.33329 23.2 5.33329C21.3334 5.33329 19.2 6.39996 17.3334 8.26663C17.0667 8.53329 16.8 8.66663 16.4 8.66663C16 8.66663 15.7334 8.53329 15.4667 8.26663C13.6 6.39996 11.4667 5.33329 9.46669 5.33329C8.13336 5.33329 7.06669 5.86663 6.00002 6.79996C4.40002 8.39996 3.73335 10.8 4.26669 13.2C4.53335 14 4.00002 14.6666 3.33335 14.8C2.66669 14.9333 1.86669 14.5333 1.73335 13.8666C0.933355 10.6666 1.86669 7.33329 4.26669 4.93329C5.73336 3.46663 7.46669 2.66663 9.46669 2.66663C11.7334 2.66663 14.1334 3.73329 16.2667 5.59996C18.5334 3.73329 20.9334 2.66663 23.2 2.66663C25.2 2.66663 27.0667 3.46663 28.5334 4.93329C31.0667 7.46663 31.8667 11.0666 30.8 14.5333C30.4 15.8666 29.6 17.2 28.5334 18.2666L17.3334 29.7333C17.0667 30 16.8 30.1333 16.4 30.1333Z" fill="#BC96E6"/>
<path d="M16.1333 22.1333C15.4667 22.1333 15.0667 21.7333 14.8 21.2L13.2 16L12.8 17.3333C12.6667 17.8666 12.1333 18.2666 11.4667 18.2666H2.66668C1.86668 18.2666 1.33334 17.7333 1.33334 16.9333C1.33334 16.1333 1.86668 15.6 2.66668 15.6H10.5333L11.7333 11.0666C12 10.5333 12.5333 10.1333 13.0667 10.1333C13.6 10.1333 14.1333 10.5333 14.4 11.0666L16.2667 16.9333L18 12.5333C18.2667 12 18.6667 11.7333 19.2 11.7333C19.7333 11.7333 20.2667 12.1333 20.4 12.5333L21.6 15.6H23.4667C24.2667 15.6 24.8 16.1333 24.8 16.9333C24.8 17.7333 24.2667 18.2666 23.4667 18.2666H20.6667C20.1333 18.2666 19.6 17.8666 19.4667 17.4666L19.2 16.6666L17.3333 21.3333C17.2 21.8666 16.6667 22.1333 16.1333 22.1333Z" fill="#226CE0"/>
</g>
<defs>
<clipPath id="clip0">
<rect width="30" height="27.4667" fill="white" transform="translate(1.33334 2.66663)"/>
</clipPath>
</defs>
</svg>
