<svg width="32" height="32" viewBox="0 0 32 32" fill="none" xmlns="http://www.w3.org/2000/svg">
<g clip-path="url(#clip0)">
<path d="M8.26667 31.4667H4.53334C2.80001 31.4667 1.33334 30.1334 1.33334 28.4C0.933339 16.4 12 10.8 12.5333 10.5334C12.9333 10.2667 13.4667 10.4 13.8667 10.5334C14.2667 10.8 14.5333 11.2 14.5333 11.6V14.9334C14.5333 15.7334 14 16.2667 13.2 16.2667C12.4 16.2667 11.8667 15.7334 11.8667 14.9334V14.1334C8.93334 16.1334 3.86667 20.8 4.13334 28.2667C4.13334 28.5334 4.40001 28.8 4.66667 28.8H8.26667C10.2667 28.8 11.7333 27.2 11.7333 25.3334V21.3334C11.7333 20.5334 12.2667 20 13.0667 20C13.8667 20 14.4 20.5334 14.4 21.3334V25.2C14.4 28.6667 11.6 31.4667 8.26667 31.4667Z" fill="#BC96E6"/>
<path d="M28.1333 31.4667H24.5333C21.0667 31.4667 18.4 28.6667 18.4 25.3333V21.3333C18.4 20.5333 18.9333 20 19.7333 20C20.5333 20 21.0667 20.5333 21.0667 21.3333V25.2C21.0667 27.2 22.6667 28.6667 24.5333 28.6667H28.1333C28.4 28.6667 28.6667 28.4 28.6667 28.1333C28.9333 20.6667 23.8667 16 20.9333 14V14.9333C20.9333 15.7333 20.4 16.2667 19.6 16.2667C18.8 16.2667 18.2667 15.7333 18.2667 14.9333V11.7333C18.2667 11.3333 18.5333 10.8 18.9333 10.6667C19.3333 10.4 19.8667 10.4 20.2667 10.6667C20.8 10.9333 31.7333 16.5333 31.4667 28.5333C31.3333 30 29.8667 31.4667 28.1333 31.4667Z" fill="#BC96E6"/>
<path d="M16.4 18.8C15.6 18.8 15.0667 18.2667 15.0667 17.4667V8.13338C15.0667 7.33338 15.6 6.80005 16.4 6.80005C17.2 6.80005 17.7333 7.33338 17.7333 8.13338V17.4667C17.7333 18.2667 17.0667 18.8 16.4 18.8Z" fill="#226CE0"/>
<path d="M16.4 6.00004C15.6 6.00004 15.0667 5.46671 15.0667 4.66671V2.66671C15.0667 1.86671 15.6 1.33337 16.4 1.33337C17.2 1.33337 17.7333 1.86671 17.7333 2.66671V4.66671C17.7333 5.33337 17.0667 6.00004 16.4 6.00004Z" fill="#226CE0"/>
<path d="M7.86666 25.8668C7.73332 25.8668 7.73332 25.8668 7.59999 25.8668C6.93332 25.7334 6.39999 25.0668 6.53332 24.2668C7.33332 19.4668 11.4667 16.1334 16.2667 16.1334C21.0667 16.1334 25.2 19.6001 26 24.2668C26.1333 24.9334 25.6 25.7334 24.9333 25.8668C24.1333 26.0001 23.4667 25.4668 23.3333 24.8001C22.6667 21.3334 19.7333 18.8001 16.1333 18.8001C12.5333 18.8001 9.73332 21.3334 9.19999 24.8001C9.06666 25.4668 8.39999 25.8668 7.86666 25.8668Z" fill="#226CE0"/>
</g>
<defs>
<clipPath id="clip0">
<rect width="30" height="30.1333" fill="white" transform="translate(1.33331 1.33337)"/>
</clipPath>
</defs>
</svg>
