<svg width="32" height="32" viewBox="0 0 32 32" fill="none" xmlns="http://www.w3.org/2000/svg">
<g clip-path="url(#clip0)">
<path d="M17.8666 31.1999C12.4 31.1999 7.86664 26.6666 7.86664 21.1999V16.6666C7.86664 15.8666 8.39997 15.3333 9.19997 15.3333C9.99997 15.3333 10.5333 15.8666 10.5333 16.6666V21.1999C10.5333 25.1999 13.8666 28.5333 17.8666 28.5333C21.8666 28.5333 25.2 25.1999 25.2 21.1999V19.5999C25.2 18.7999 25.7333 18.2666 26.5333 18.2666C27.3333 18.2666 27.8666 18.7999 27.8666 19.5999V21.1999C27.8666 26.6666 23.4666 31.1999 17.8666 31.1999Z" fill="#BC96E6"/>
<path d="M5.99998 17.0666C5.73331 17.0666 5.59998 17.0666 5.33331 16.9333C2.79998 15.4666 1.33331 12.9333 1.33331 9.99992V2.66659C1.33331 1.86659 1.86665 1.33325 2.66665 1.33325H6.26665C7.06665 1.33325 7.59998 1.86659 7.59998 2.66659C7.59998 3.46659 7.06665 3.99992 6.26665 3.99992H3.99998V9.99992C3.99998 11.8666 5.06665 13.5999 6.66665 14.5333C7.33331 14.9333 7.46665 15.7333 7.19998 16.3999C6.93331 16.7999 6.53331 17.0666 5.99998 17.0666Z" fill="#BC96E6"/>
<path d="M9.33333 17.8666C8.53333 17.8666 8 17.3332 8 16.5332C8 15.7332 8.53333 15.1999 9.33333 15.1999C12.2667 15.1999 14.5333 12.7999 14.5333 9.99992V3.99992H12.4C11.6 3.99992 11.0667 3.46658 11.0667 2.66659C11.0667 1.86659 11.6 1.33325 12.4 1.33325H16C16.8 1.33325 17.3333 1.86659 17.3333 2.66659V9.99992C17.3333 14.3999 13.7333 17.8666 9.33333 17.8666Z" fill="#BC96E6"/>
<path d="M26.5333 20.9332C24 20.9332 21.8666 18.7999 21.8666 16.2665C21.8666 13.7332 24 11.5999 26.5333 11.5999C29.0666 11.5999 31.2 13.7332 31.2 16.2665C31.2 18.7999 29.0666 20.9332 26.5333 20.9332ZM26.5333 14.2665C25.4666 14.2665 24.5333 15.1999 24.5333 16.2665C24.5333 17.3332 25.4666 18.2665 26.5333 18.2665C27.6 18.2665 28.5333 17.3332 28.5333 16.2665C28.5333 15.1999 27.6 14.2665 26.5333 14.2665Z" fill="#226CE0"/>
</g>
<defs>
<clipPath id="clip0">
<rect width="29.8667" height="29.8667" fill="white" transform="translate(1.33331 1.33325)"/>
</clipPath>
</defs>
</svg>
