<svg width="32" height="32" viewBox="0 0 32 32" fill="none" xmlns="http://www.w3.org/2000/svg">
<g clip-path="url(#clip0)">
<path d="M24.1333 31.4666C23.3333 31.4666 22.8 30.9333 22.8 30.1333C22.8 30.1333 22.8 30.1333 22.8 29.9999C22.8 26.6666 20.8 25.9999 19.2 25.9999H12.4C10.8 25.9999 8.79997 26.6666 8.79997 30.1333C8.79997 30.9333 8.26663 31.4666 7.46663 31.4666C6.66663 31.4666 6.1333 30.9333 6.1333 30.1333V29.9999C6.1333 25.9999 8.66663 23.3333 12.4 23.3333H19.3333C23.2 23.3333 25.6 25.9999 25.6 30.1333C25.4666 30.9333 24.9333 31.4666 24.1333 31.4666Z" fill="#BC96E6"/>
<path d="M15.8666 22.6666C12.4 22.6666 9.59998 19.8666 9.59998 16.4C9.59998 12.9333 12.4 10.1333 15.8666 10.1333C19.3333 10.1333 22.1333 12.9333 22.1333 16.4C22.1333 19.8666 19.3333 22.6666 15.8666 22.6666ZM15.8666 12.6666C13.8666 12.6666 12.2666 14.2666 12.2666 16.2666C12.2666 18.2666 13.8666 20 15.8666 20C17.8666 20 19.4666 18.4 19.4666 16.4C19.4666 14.4 17.7333 12.6666 15.8666 12.6666Z" fill="#BC96E6"/>
<path d="M9.73329 12.3999C9.46662 12.3999 9.06662 12.2666 8.79995 11.9999L5.46662 8.79992C5.06662 8.53325 4.93329 8.13325 4.93329 7.73325C5.06662 7.33325 5.33329 6.93325 5.59996 6.66658L7.59995 5.59992L5.59996 3.59992C5.06662 3.06659 5.06662 2.26659 5.59996 1.73325C6.13329 1.19992 6.93329 1.19992 7.46662 1.73325L10.8 4.93325C11.0666 5.19992 11.2 5.59992 11.2 6.13325C11.2 6.53325 10.9333 6.93325 10.5333 7.06659L8.53329 8.13325L10.6666 9.99992C11.2 10.5333 11.2 11.3333 10.8 11.8666C10.5333 12.1333 10.1333 12.3999 9.73329 12.3999Z" fill="#226CE0"/>
<path d="M21.8666 12.3999C21.4666 12.3999 21.1999 12.2666 20.9333 11.9999C20.3999 11.4666 20.5333 10.6666 21.0666 10.1332L23.1999 8.26655L21.3333 7.19989C20.9333 6.93322 20.6666 6.66655 20.6666 6.26655C20.6666 5.86655 20.7999 5.46655 21.0666 5.06655L24.3999 1.86655C24.9333 1.33322 25.7333 1.33322 26.2666 1.86655C26.7999 2.39989 26.7999 3.19989 26.2666 3.73322L23.9999 5.59989L25.9999 6.66655C26.3999 6.93322 26.6666 7.19989 26.6666 7.73322C26.6666 8.26655 26.5333 8.53322 26.2666 8.93322L22.7999 11.9999C22.5333 12.2666 22.1333 12.3999 21.8666 12.3999Z" fill="#226CE0"/>
<path d="M23.7333 18.2666C23.1999 18.2666 22.6666 17.9999 22.5333 17.4666C22.2666 16.7999 22.5333 15.9999 23.1999 15.7333L25.1999 14.9333L24.1333 13.7333C23.8666 13.4666 23.7333 12.9333 23.8666 12.5333C23.9999 12.1333 24.2666 11.7333 24.6666 11.5999L28.3999 9.86659C29.0666 9.59993 29.8666 9.86659 30.1333 10.5333C30.3999 11.1999 30.1333 11.9999 29.4666 12.2666L27.4666 13.1999L28.6666 14.5333C28.9333 14.7999 29.0666 15.3333 28.9333 15.7333C28.7999 16.1333 28.5333 16.5333 28.1333 16.6666L24.3999 18.2666C24.1333 18.2666 23.8666 18.2666 23.7333 18.2666Z" fill="#226CE0"/>
<path d="M7.7333 18.2666C7.59996 18.2666 7.3333 18.2666 7.19996 18.1333L3.46663 16.5333C3.06663 16.4 2.79996 16 2.66663 15.6C2.5333 15.2 2.66663 14.8 2.9333 14.4L4.1333 13.0666L2.1333 12.1333C1.46663 11.8666 1.19996 11.0666 1.46663 10.4C1.7333 9.73329 2.5333 9.46662 3.19996 9.73329L6.9333 11.4666C7.3333 11.6 7.59996 12 7.59996 12.4C7.59996 12.8 7.59996 13.2 7.3333 13.6L6.26663 14.8L8.26663 15.6C8.9333 15.8666 9.19996 16.6666 8.9333 17.3333C8.79996 18 8.26663 18.2666 7.7333 18.2666Z" fill="#226CE0"/>
</g>
<defs>
<clipPath id="clip0">
<rect width="28.8" height="30.1333" fill="white" transform="translate(1.33331 1.33325)"/>
</clipPath>
</defs>
</svg>
