<svg width="21" height="21" viewBox="0 0 21 21" fill="none" xmlns="http://www.w3.org/2000/svg">
<path d="M15.309 12.5849C15.0458 12.4517 13.7642 11.8263 13.5247 11.737C13.2851 11.6517 13.1112 11.6071 12.9367 11.8702C12.766 12.1268 12.2633 12.7142 12.1098 12.8855C11.9562 13.0568 11.8053 13.0699 11.5461 12.9537C11.2829 12.8205 10.4423 12.5468 9.44409 11.6517C8.66447 10.9581 8.14538 10.1036 7.99116 9.84047C7.83759 9.58059 7.97409 9.43359 8.10403 9.30366C8.22347 9.18422 8.36719 9.00309 8.50041 8.84559C8.62706 8.68809 8.66775 8.58244 8.76028 8.41181C8.84559 8.22741 8.80163 8.08369 8.73666 7.95375C8.67169 7.82381 8.14866 6.53559 7.93012 6.02241C7.72144 5.51316 7.50291 5.57812 7.34212 5.57812C7.19184 5.56434 7.01728 5.56434 6.84338 5.56434C6.66947 5.56434 6.38531 5.62931 6.14578 5.87869C5.90625 6.14184 5.22966 6.77053 5.22966 8.04234C5.22966 9.31744 6.16612 10.5512 6.29606 10.7356C6.42928 10.9062 8.13816 13.5312 10.7599 14.6593C11.3853 14.9225 11.8709 15.08 12.2502 15.2099C12.8756 15.4081 13.4466 15.3805 13.8974 15.3156C14.3962 15.2335 15.4422 14.6829 15.6614 14.068C15.8839 13.4492 15.8839 12.9367 15.8189 12.8205C15.7539 12.7011 15.5833 12.6361 15.3202 12.5199L15.309 12.5849ZM10.5545 19.0312H10.5407C8.98866 19.0312 7.45434 18.6106 6.11428 17.8244L5.79994 17.6367L2.51869 18.4912L3.40069 15.2985L3.18872 14.9704C2.32212 13.5925 1.86237 11.9978 1.86244 10.3701C1.86244 5.60569 5.76253 1.71937 10.561 1.71937C12.8855 1.71937 15.0662 2.625 16.7068 4.26562C17.5161 5.06533 18.1581 6.0182 18.5953 7.06864C19.0325 8.11908 19.2561 9.24607 19.2531 10.3838C19.2465 15.1449 15.3497 19.0312 10.5577 19.0312H10.5545ZM17.9543 3.01809C15.958 1.09003 13.333 0 10.5407 0C4.78144 0 0.091875 4.66922 0.0885938 10.4075C0.0885938 12.2397 0.567 14.0273 1.48312 15.6096L0 21L5.544 19.5543C7.07983 20.3823 8.79653 20.8179 10.5413 20.8222H10.5446C16.3072 20.8222 20.9967 16.1529 21 10.4108C21 7.63219 19.9165 5.01703 17.9412 3.05156L17.9543 3.01809Z" fill="#55286F"/>
</svg>
