<svg xmlns="http://www.w3.org/2000/svg" viewBox="0 0 100 17.31"><defs><style>.cls-1{isolation:isolate;}.cls-2{fill:#acdff7;}.cls-3{fill:#8b8cd3;mix-blend-mode:multiply;}.cls-4{fill:#226ce0;}</style></defs><g class="cls-1"><g id="Capa_1" data-name="Capa 1"><path class="cls-2" d="M8.62,43.69,1.74,50A5.92,5.92,0,0,0,.15,52.53a5.08,5.08,0,0,0,1.64,5,5.42,5.42,0,0,0,4,1.11,4.73,4.73,0,0,0,2.14-.8c.25-.16.48-.33.74-.51h0l.74.51a4.81,4.81,0,0,0,2.15.8,5.38,5.38,0,0,0,3.95-1.11,5.09,5.09,0,0,0,1.65-5A6,6,0,0,0,15.57,50L8.69,43.69Z" transform="translate(0 -41.35)"/><path class="cls-3" d="M8.69,56.31,15.57,50a6,6,0,0,0,1.59-2.49,5.1,5.1,0,0,0-1.64-5,5.42,5.42,0,0,0-4-1.11,4.81,4.81,0,0,0-2.15.8l-.74.51h0c-.26-.18-.49-.35-.74-.51a4.73,4.73,0,0,0-2.14-.8,5.42,5.42,0,0,0-4,1.11,5.08,5.08,0,0,0-1.64,5A5.92,5.92,0,0,0,1.74,50l6.88,6.35Z" transform="translate(0 -41.35)"/><path class="cls-4" d="M23.08,45.34h3.69a4.65,4.65,0,1,1,0,9.3H23.08Zm3.6,7a2.34,2.34,0,0,0,0-4.67h-1v4.67Z" transform="translate(0 -41.35)"/><path class="cls-4" d="M32.36,47.3h2.42v1.31a2.19,2.19,0,0,1,2.29-1.45V50c-1.81,0-2.22.79-2.22,2.17v2.47H32.36Z" transform="translate(0 -41.35)"/><path class="cls-4" d="M37.21,53.37A1.34,1.34,0,0,1,38.56,52a1.41,1.41,0,1,1-1.35,1.4Z" transform="translate(0 -41.35)"/><path class="cls-4" d="M43.58,53.69l.85-2.13a5.06,5.06,0,0,0,2.89.85c.28,0,1.07-.09,1.07-.57s-.56-.52-1.07-.65c-1.71-.4-3.5-1.09-3.5-3.18,0-1.94,1.68-2.82,3.5-2.82a6.25,6.25,0,0,1,3.44,1l-.88,2.11a5.32,5.32,0,0,0-2.56-.68c-.22,0-.79.06-.79.44s.33.47.79.58c1.33.3,3.78.86,3.78,3.25,0,2.12-1.94,3-3.78,3A6,6,0,0,1,43.58,53.69Z" transform="translate(0 -41.35)"/><path class="cls-4" d="M51.5,51c0-2.13,1-3.82,3-3.82a2.16,2.16,0,0,1,1.91,1V47.3h2.35v7.34H56.4v-.82a2.19,2.19,0,0,1-1.91,1C52.55,54.78,51.5,53.09,51.5,51Zm4.77,0c0-.88-.46-1.53-1.12-1.53S54,50.1,54,51s.46,1.5,1.12,1.5S56.27,51.87,56.27,51Z" transform="translate(0 -41.35)"/><path class="cls-4" d="M59.85,45.19h2.49v9.45H59.85Z" transform="translate(0 -41.35)"/><path class="cls-4" d="M63,47.3h2.46l1.06,3.91c.09.34.15.61.23.93.08-.32.14-.59.23-.93L68,47.3h2.46L68,54.64H65.46Z" transform="translate(0 -41.35)"/><path class="cls-4" d="M70.62,51c0-2.13,1.06-3.82,3-3.82a2.16,2.16,0,0,1,1.9,1V47.3h2.36v7.34H75.52v-.82a2.17,2.17,0,0,1-1.9,1C71.68,54.78,70.62,53.09,70.62,51Zm4.78,0c0-.88-.47-1.53-1.12-1.53s-1.13.65-1.13,1.53.47,1.5,1.13,1.5S75.4,51.87,75.4,51Z" transform="translate(0 -41.35)"/><path class="cls-4" d="M78.84,51c0-2.13,1.12-3.82,3.08-3.82a2.11,2.11,0,0,1,1.68.76V45.19h2.49v9.45H83.74v-.82a2.17,2.17,0,0,1-1.91,1C79.89,54.78,78.84,53.09,78.84,51Zm4.77,0c0-.88-.46-1.53-1.12-1.53s-1.12.65-1.12,1.53.46,1.5,1.12,1.5S83.61,51.87,83.61,51Z" transform="translate(0 -41.35)"/><path class="cls-4" d="M87.05,51a3.78,3.78,0,1,1,3.78,3.8A3.75,3.75,0,0,1,87.05,51Zm5,0a1.28,1.28,0,1,0-2.52,0,1.28,1.28,0,1,0,2.52,0Z" transform="translate(0 -41.35)"/><path class="cls-4" d="M95.29,47.3h2.42v1.31A2.21,2.21,0,0,1,100,47.16V50c-1.81,0-2.22.79-2.22,2.17v2.47H95.29Z" transform="translate(0 -41.35)"/></g></g></svg>