<svg xmlns="http://www.w3.org/2000/svg" viewBox="0 0 100 42.5"><defs><style>.cls-1{isolation:isolate;}.cls-2{fill:#acdff7;}.cls-3{fill:#8b8cd3;mix-blend-mode:multiply;}.cls-4{fill:#226ce0;}</style></defs><g class="cls-1"><g id="Capa_1" data-name="Capa 1"><path class="cls-2" d="M50,31.8l-9,8.25a7.88,7.88,0,0,0-2.07,3.24,6.65,6.65,0,0,0,2.14,6.48,7,7,0,0,0,5.14,1.44,6.35,6.35,0,0,0,2.79-1c.32-.21.62-.43,1-.67H50c.34.24.64.46,1,.67a6.35,6.35,0,0,0,2.79,1,7,7,0,0,0,5.14-1.44,6.65,6.65,0,0,0,2.14-6.48A7.88,7.88,0,0,0,59,40.05L50,31.8Z" transform="translate(0 -28.75)"/><path class="cls-3" d="M50,48.2,59,40a7.88,7.88,0,0,0,2.07-3.24,6.65,6.65,0,0,0-2.14-6.48,7,7,0,0,0-5.14-1.44,6.35,6.35,0,0,0-2.79,1c-.32.21-.62.43-1,.67H50c-.34-.24-.64-.46-1-.67a6.35,6.35,0,0,0-2.79-1,7,7,0,0,0-5.14,1.44,6.65,6.65,0,0,0-2.14,6.48A7.88,7.88,0,0,0,41,40l9,8.25Z" transform="translate(0 -28.75)"/><path class="cls-4" d="M0,58.94H4.8A6,6,0,1,1,4.8,71H0ZM4.68,68a3,3,0,0,0,0-6.08H3.38V68Z" transform="translate(0 -28.75)"/><path class="cls-4" d="M12.07,61.49h3.15v1.7a2.84,2.84,0,0,1,3-1.88V65c-2.35,0-2.88,1-2.88,2.82V71H12.07Z" transform="translate(0 -28.75)"/><path class="cls-4" d="M18.37,69.38a1.75,1.75,0,0,1,1.76-1.82,1.83,1.83,0,0,1,0,3.65A1.75,1.75,0,0,1,18.37,69.38Z" transform="translate(0 -28.75)"/><path class="cls-4" d="M26.66,69.79,27.76,67a6.58,6.58,0,0,0,3.76,1.1c.35,0,1.39-.11,1.39-.74s-.73-.67-1.39-.84C29.29,66,27,65.13,27,62.41c0-2.52,2.19-3.66,4.56-3.66A8.06,8.06,0,0,1,36,60l-1.13,2.74a6.94,6.94,0,0,0-3.33-.87c-.29,0-1,.07-1,.56s.42.61,1,.76c1.72.39,4.91,1.12,4.91,4.22,0,2.76-2.53,3.86-4.91,3.86A7.66,7.66,0,0,1,26.66,69.79Z" transform="translate(0 -28.75)"/><path class="cls-4" d="M37,66.27c0-2.76,1.37-5,3.89-5a2.82,2.82,0,0,1,2.48,1.25V61.49h3.06V71H43.32V70a2.82,2.82,0,0,1-2.48,1.25C38.32,71.21,37,69,37,66.27Zm6.21,0c0-1.14-.61-2-1.46-2s-1.46.84-1.46,2,.6,2,1.46,2S43.16,67.43,43.16,66.27Z" transform="translate(0 -28.75)"/><path class="cls-4" d="M47.8,58.75H51V71H47.8Z" transform="translate(0 -28.75)"/><path class="cls-4" d="M51.86,61.49h3.2l1.37,5.08c.13.44.2.8.31,1.21.1-.41.17-.77.3-1.21l1.37-5.08h3.2L58.37,71H55.1Z" transform="translate(0 -28.75)"/><path class="cls-4" d="M61.81,66.27c0-2.76,1.37-5,3.9-5a2.79,2.79,0,0,1,2.47,1.25V61.49h3.06V71H68.18V70a2.81,2.81,0,0,1-2.47,1.25C63.18,71.21,61.81,69,61.81,66.27Zm6.21,0c0-1.14-.61-2-1.46-2s-1.46.84-1.46,2,.61,2,1.46,2S68,67.43,68,66.27Z" transform="translate(0 -28.75)"/><path class="cls-4" d="M72.49,66.27c0-2.76,1.46-5,4-5a2.76,2.76,0,0,1,2.19,1V58.75h3.24V71H78.86V70a2.8,2.8,0,0,1-2.48,1.25C73.86,71.21,72.49,69,72.49,66.27Zm6.21,0c0-1.14-.61-2-1.46-2s-1.46.84-1.46,2,.6,2,1.46,2S78.7,67.43,78.7,66.27Z" transform="translate(0 -28.75)"/><path class="cls-4" d="M83.16,66.27a4.92,4.92,0,1,1,4.92,4.94A4.88,4.88,0,0,1,83.16,66.27Zm6.55,0a1.67,1.67,0,1,0-3.27,0,1.66,1.66,0,1,0,3.27,0Z" transform="translate(0 -28.75)"/><path class="cls-4" d="M93.88,61.49H97v1.7a2.84,2.84,0,0,1,3-1.88V65c-2.35,0-2.88,1-2.88,2.82V71H93.88Z" transform="translate(0 -28.75)"/></g></g></svg>